# xmcd
#
# Track frame offsets:
#	150
#	74925
#	100430
#	181717
#	241955
#	287580
#
# Disc length: 4317 seconds
#
# Revision: 5
# Processed by: cddbd v1.5.2PL0 Copyright (c) Steve Scherf et al.
# Submitted via: audiograbber 1.83.01
#
DISCID=5610db06
DTITLE=Miles Davis - The Complete In A Silent Way Sessions - Disc 1
DYEAR=1969
DGENRE=Jazz
TTITLE0=Mademoiselle Mabry
TTITLE1=Frelon Brun
TTITLE2=Two Faced
TTITLE3=Dual Mr. Anthony Tillmon Williams Process
TTITLE4=Splash
TTITLE5=Splashdown
EXTD=YEAR: 2001
EXTT0=
EXTT1=
EXTT2=
EXTT3=
EXTT4=
EXTT5=
PLAYORDER=
